{"title":"20141019 - Share The Story - Josh and Candy Dalton.mp4","uid":11251771,"size":199294246,"categoryP":"video","categoryS":"other","magnet":"?xt=urn:btih:28fcb9ed3eb48adb213b5d22a7d8213d359abdd6&amp;dn=20141019+-+Share+The+Story+-+Josh+and+Candy+Dalton.mp4&amp;tr=udp%3A%2F%2Ftracker.openbittorrent.com%3A80&amp;tr=udp%3A%2F%2Fopen.demonii.com%3A1337&amp;tr=udp%3A%2F%2Ftracker.coppersurfer.tk%3A6969&amp;tr=udp%3A%2F%2Fexodus.desync.com%3A6969","seeders":3,"leechers":0,"uploader":"davidrpeet","files":1,"time":1413842222,"description":"Share The Story: Josh and Candy Dalton\nWeekly sermons from CrossRoads Church in Decatur, Texas\n\n\n\n\nGeneral\nFormat                                   : MPEG-4\nFormat profile                           : Base Media / Version 2\nCodec ID                                 : mp42\nFile size                                : 190 MiB\nDuration                                 : 32mn 9s\nOverall bit rate mode                    : Variable\nOverall bit rate                         : 826 Kbps\nMovie name                               : Share The Story: Josh and Candy Dalton\nAlbum                                    : CrossRoads Church \nAlbum/Performer                          : Darren Embree\nPerformer                                : Josh and Candy Dalton\nComposer                                 : http://crossroadspeople.com/\nGenre                                    : Speech\nRecorded date                            : 2014\nEncoded date                             : UTC 2014-10-20 06:30:31\nTagged date                              : UTC 2014-10-20 06:30:31\nCover                                    : Yes\nComment                                  : CrossRoads To Go Video Podcasts\n\nVideo\nID                                       : 1\nFormat                                   : AVC\nFormat/Info                              : Advanced Video Codec\nFormat profile                           : &lt;a class=&quot;__cf_email__&quot; href=&quot;/cdn-cgi/l/email-protection&quot; data-cfemail=&quot;743c1d131c3438475a45&quot;&gt;[email&amp;#160;protected]&lt;/a&gt;&lt;script cf-hash='f9e31' type=&quot;text/javascript&quot;&gt;\n/* &lt;![CDATA[ */!function(){try{var t=&quot;currentScript&quot;in document?document.currentScript:function(){for(var t=document.getElementsByTagName(&quot;script&quot;),e=t.length;e--;)if(t[e].getAttribute(&quot;cf-hash&quot;))return t[e]}();if(t&amp;&amp;t.previousSibling){var e,r,n,i,c=t.previousSibling,a=c.getAttribute(&quot;data-cfemail&quot;);if(a){for(e=&quot;&quot;,r=parseInt(a.substr(0,2),16),n=2;a.length-n;n+=2)i=parseInt(a.substr(n,2),16)^r,e+=String.fromCharCode(i);e=document.createTextNode(e),c.parentNode.replaceChild(e,c)}}}catch(u){}}();/* ]]&gt; */&lt;/script&gt;\nFormat settings, CABAC                   : Yes\nFormat settings, ReFrames                : 4 frames\nCodec ID                                 : avc1\nCodec ID/Info                            : Advanced Video Coding\nDuration                                 : 32mn 9s\nBit rate                                 : 718 Kbps\nWidth                                    : 640 pixels\nHeight                                   : 360 pixels\nDisplay aspect ratio                     : 16:9\nFrame rate mode                          : Constant\nFrame rate                               : 29.970 fps\nColor space                              : YUV\nChroma subsampling                       : 4:2:0\nBit depth                                : 8 bits\nScan type                                : Progressive\nBits/(Pixel*Frame)                       : 0.104\nStream size                              : 165 MiB (87%)\nWriting library                          : x264 core 142 r2453 ea0ca51\nTagged date                              : UTC 2014-10-20 06:30:31\n\nAudio\nID                                       : 2\nFormat                                   : AAC\nFormat/Info                              : Advanced Audio Codec\nFormat profile                           : LC\nCodec ID                                 : 40\nDuration                                 : 32mn 9s\nBit rate mode                            : Variable\nBit rate                                 : 103 Kbps\nChannel(s)                               : 2 channels\nChannel positions                        : Front: L R\nSampling rate                            : 48.0 KHz\nCompression mode                         : Lossy\nStream size                              : 23.7 MiB (12%)\nEncoded date                             : UTC 2014-10-20 06:30:31\nTagged date                              : UTC 2014-10-20 06:30:31","torrent":{"xt":"urn:btih:28fcb9ed3eb48adb213b5d22a7d8213d359abdd6","amp;dn":"20141019+-+Share+The+Story+-+Josh+and+Candy+Dalton.mp4","amp;tr":["udp%3A%2F%2Ftracker.openbittorrent.com%3A80","udp%3A%2F%2Fopen.demonii.com%3A1337","udp%3A%2F%2Ftracker.coppersurfer.tk%3A6969","udp%3A%2F%2Fexodus.desync.com%3A6969"],"infoHash":"28fcb9ed3eb48adb213b5d22a7d8213d359abdd6","infoHashBuffer":{"type":"Buffer","data":[40,252,185,237,62,180,138,219,33,59,93,34,167,216,33,61,53,154,189,214]},"announce":[],"urlList":[]}}